<?xml version="1.0" standalone="no"?>
<!DOCTYPE svg PUBLIC "-//W3C//DTD SVG 20010904//EN"
 "http://www.w3.org/TR/2001/REC-SVG-20010904/DTD/svg10.dtd">
<svg version="1.0" xmlns="http://www.w3.org/2000/svg"
 width="512.000000pt" height="512.000000pt" viewBox="0 0 512.000000 512.000000"
 preserveAspectRatio="xMidYMid meet">

<g transform="translate(0.000000,512.000000) scale(0.100000,-0.100000)"
fill="#000000" stroke="none">
<path d="M883 4600 c-148 -30 -280 -155 -342 -324 l-26 -71 0 -1645 0 -1645
26 -71 c63 -174 188 -289 347 -323 75 -16 3269 -16 3344 0 159 34 284 149 347
323 l26 71 3 635 3 636 -28 54 c-66 125 -217 152 -321 56 -59 -53 -57 -28 -62
-686 -5 -573 -6 -606 -24 -633 -41 -61 67 -57 -1618 -57 -1502 0 -1544 1
-1574 19 -69 42 -65 -63 -62 1641 3 1489 4 1536 22 1563 40 58 23 57 661 57
506 0 591 2 623 15 160 68 168 286 13 367 l-53 28 -632 -1 c-347 -1 -650 -5
-673 -9z"/>
<path d="M3293 4586 c-119 -56 -154 -209 -71 -311 59 -71 78 -75 381 -75 147
0 267 -3 267 -8 0 -4 -340 -347 -756 -762 -516 -515 -762 -768 -775 -795 -64
-136 34 -300 187 -313 107 -9 71 -40 899 788 418 418 763 760 767 760 5 0 8
-119 8 -265 0 -217 3 -272 15 -303 68 -161 286 -169 367 -13 l29 54 -3 562 -3
561 -28 42 c-15 23 -46 54 -69 69 l-42 28 -560 3 -561 2 -52 -24z"/>
</g>
</svg>
